<svg width="15" height="16" viewBox="0 0 15 16" fill="none" xmlns="http://www.w3.org/2000/svg">
<path d="M12.7468 6.22594C11.8909 5.83913 11.0916 5.82988 10.3647 6.00138C10.9569 5.31928 11.2979 4.42412 11.2445 3.45006C11.1429 1.59377 9.55585 0.073764 7.64711 0.00273248C5.50904 -0.0767053 3.75001 1.58617 3.75001 3.64906C3.75001 4.5459 4.08377 5.36584 4.63529 6.00135C3.90836 5.82984 3.10905 5.83909 2.25319 6.22591C0.935788 6.82157 0.0190694 8.08219 0.000314946 9.49554C-0.0265 11.5332 1.66243 13.193 3.75001 13.193C4.75877 13.193 5.67231 12.8036 6.34615 12.1732V13.2483C6.34615 13.7639 6.20796 14.2706 5.94489 14.7183L5.43894 15.5801C5.32904 15.7673 5.46806 16 5.68933 16H9.31067C9.53222 16 9.67095 15.7673 9.56106 15.5801L9.05511 14.7183C8.79232 14.2706 8.65384 13.7639 8.65384 13.2483V12.1732C9.32797 12.8036 10.2415 13.193 11.25 13.193C13.3376 13.193 15.0268 11.5332 14.9997 9.49554C14.9809 8.08219 14.0642 6.82157 12.7468 6.22594Z" fill="black"/>
</svg>
