<svg width="8" height="11" viewBox="0 0 8 11" fill="none" xmlns="http://www.w3.org/2000/svg">
<path d="M3.99785 10.176C3.18385 10.176 2.47985 9.912 1.88585 9.384C1.26985 8.84133 0.961852 8.17033 0.961852 7.371C0.961852 6.43233 1.36885 5.68067 2.18285 5.116C1.59618 4.632 1.30285 4.01967 1.30285 3.279C1.30285 2.56767 1.57785 1.97 2.12785 1.486C2.65585 1.024 3.27919 0.793 3.99785 0.793C4.71652 0.793 5.33985 1.024 5.86785 1.486C6.41785 1.97 6.69285 2.56767 6.69285 3.279C6.69285 4.01233 6.39952 4.62467 5.81285 5.116C6.62685 5.67333 7.03385 6.425 7.03385 7.371C7.03385 8.17033 6.72952 8.83767 6.12085 9.373C5.51952 9.90833 4.81185 10.176 3.99785 10.176ZM3.99785 1.992C3.60919 1.992 3.26819 2.10933 2.97485 2.344C2.64485 2.59333 2.47985 2.905 2.47985 3.279C2.47985 3.653 2.64485 3.96467 2.97485 4.214C3.26819 4.44867 3.60919 4.566 3.99785 4.566C4.38652 4.566 4.72752 4.44867 5.02085 4.214C5.35085 3.96467 5.51585 3.653 5.51585 3.279C5.51585 2.905 5.35085 2.59333 5.02085 2.344C4.72752 2.10933 4.38652 1.992 3.99785 1.992ZM3.99785 5.765C3.52119 5.765 3.09952 5.91167 2.73285 6.205C2.33685 6.513 2.13885 6.90167 2.13885 7.371C2.13885 7.833 2.33685 8.22167 2.73285 8.537C3.09952 8.823 3.52119 8.966 3.99785 8.966C4.47452 8.966 4.89619 8.823 5.26285 8.537C5.65885 8.22167 5.85685 7.833 5.85685 7.371C5.85685 6.90167 5.65885 6.513 5.26285 6.205C4.89619 5.91167 4.47452 5.765 3.99785 5.765Z" fill="black"/>
</svg>
