<svg width="7" height="11" viewBox="0 0 7 11" fill="none" xmlns="http://www.w3.org/2000/svg">
<path d="M3.35485 10.253C2.69485 10.253 2.08985 10.0257 1.53985 9.571C1.05585 9.153 0.678185 8.614 0.406852 7.954L1.50685 7.492C1.68285 7.92467 1.91752 8.28033 2.21085 8.559C2.55552 8.889 2.93685 9.054 3.35485 9.054C3.94152 9.054 4.42919 8.779 4.81785 8.229C5.16985 7.73767 5.34585 7.19133 5.34585 6.59C5.34585 5.98133 5.16985 5.43867 4.81785 4.962C4.43652 4.44133 3.94885 4.181 3.35485 4.181C2.84885 4.181 2.34652 4.456 1.84785 5.006L0.989852 4.5V0.859H5.45585V2.069H2.17785V3.246C2.55918 3.07 2.95152 2.982 3.35485 2.982C4.27885 2.982 5.04885 3.35967 5.66485 4.115C6.24419 4.819 6.53385 5.644 6.53385 6.59C6.53385 7.536 6.24785 8.36833 5.67585 9.087C5.05252 9.86433 4.27885 10.253 3.35485 10.253Z" fill="#D71E00"/>
</svg>
