<svg width="7" height="11" viewBox="0 0 7 11" fill="none" xmlns="http://www.w3.org/2000/svg">
<path d="M1.6161 6.865C1.60877 7.31233 1.6051 7.49933 1.6051 7.426C1.6051 7.866 1.69677 8.218 1.8801 8.482C2.1001 8.79733 2.4301 8.955 2.8701 8.955C3.2441 8.955 3.54477 8.81933 3.7721 8.548C3.97743 8.29867 4.0801 7.987 4.0801 7.613V2.168H3.0791V0.859H6.3021V2.168H5.3451V7.613C5.3451 8.35367 5.12143 8.97333 4.6741 9.472C4.20477 9.99267 3.60343 10.253 2.8701 10.253C2.12943 10.253 1.52077 9.99633 1.0441 9.483C0.567433 8.96967 0.332766 8.34267 0.340099 7.602L0.3511 6.865H1.6161Z" fill="#D71E00"/>
</svg>
