<svg width="38" height="37" viewBox="0 0 38 37" fill="none" xmlns="http://www.w3.org/2000/svg">
<path d="M34.1736 13.3189C34.167 13.3123 34.1605 13.3057 34.1539 13.2991C33.2467 12.3196 30.0977 10.8602 29.1248 10.3211C24.4901 8.10568 21.42 4.87126 20.3156 0.453522H18.5998C17.5019 4.87126 14.4318 8.10568 9.79059 10.3211C8.81764 10.8602 5.66212 12.3196 4.76148 13.2991C4.7549 13.3057 4.74833 13.3123 4.74176 13.3189C2.1516 15.3568 0.580395 18.6372 0.968261 22.2727C1.46131 26.9008 5.21507 30.6414 9.84318 31.1213C12.361 31.3842 14.708 30.7071 16.5947 29.3989V30.9372C16.5947 34.9671 16.2594 35.493 15.1024 35.8283L14.5831 35.9795V36.7289C15.293 36.7289 18.1264 36.6895 19.5464 36.6895C20.9993 36.6895 23.504 36.7289 24.214 36.7289V35.9795L23.6552 35.8283C22.5376 35.5324 22.2352 34.9342 22.2352 30.9372V29.3331C24.1285 30.6742 26.5083 31.3777 29.0656 31.1147C33.6937 30.6348 37.4475 26.8942 37.9405 22.2661C38.335 18.6372 36.7638 15.3568 34.1736 13.3189Z" fill="#0087C1"/>
</svg>
