<svg width="25" height="24" viewBox="0 0 25 24" fill="none" xmlns="http://www.w3.org/2000/svg">
<path d="M22.0076 8.51178C22.0032 8.50743 21.9989 8.50309 21.9945 8.49874C21.3943 7.85068 19.3109 6.88511 18.6672 6.52846C15.6009 5.06271 13.5697 2.9228 12.839 0H11.7038C10.9775 2.9228 8.94631 5.06271 5.87563 6.52846C5.23192 6.88511 3.14421 7.85068 2.54834 8.49874C2.54399 8.50309 2.53965 8.50743 2.5353 8.51178C0.821632 9.8601 -0.217884 12.0304 0.0387304 14.4357C0.364936 17.4976 2.84844 19.9725 5.91042 20.29C7.57624 20.4639 9.12899 20.0159 10.3773 19.1504V20.1682C10.3773 22.8344 10.1554 23.1823 9.38995 23.4041L9.04635 23.5042V24C9.51609 24 11.3907 23.9739 12.3301 23.9739C13.2914 23.9739 14.9485 24 15.4182 24V23.5042L15.0485 23.4041C14.3091 23.2084 14.109 22.8126 14.109 20.1682V19.1069C15.3617 19.9942 16.9362 20.4596 18.6281 20.2856C21.6901 19.9681 24.1736 17.4933 24.4998 14.4313C24.7607 12.0304 23.7212 9.8601 22.0076 8.51178Z" fill="white"/>
</svg>
