<svg width="7" height="11" viewBox="0 0 7 11" fill="none" xmlns="http://www.w3.org/2000/svg">
<path d="M4.9524 6.755C4.43906 7.16567 3.85973 7.371 3.2144 7.371C2.34906 7.371 1.62673 7.03 1.0474 6.348C0.490063 5.688 0.211396 4.92167 0.211396 4.049C0.211396 3.169 0.490063 2.40267 1.0474 1.75C1.62673 1.06067 2.34906 0.716 3.2144 0.716C4.28506 0.716 5.08806 1.26967 5.6234 2.377C6.03406 3.235 6.2394 4.26533 6.2394 5.468C6.2394 6.72933 6.03773 7.77433 5.6344 8.603C5.1064 9.69567 4.27773 10.242 3.1484 10.242C2.0484 10.242 1.17573 9.67733 0.530396 8.548L1.5644 7.943C1.97506 8.669 2.50306 9.032 3.1484 9.032C4.10906 9.032 4.7104 8.273 4.9524 6.755ZM3.2144 1.926C2.6864 1.926 2.2464 2.15333 1.8944 2.608C1.5644 3.026 1.3994 3.50633 1.3994 4.049C1.3994 4.59167 1.5644 5.072 1.8944 5.49C2.2464 5.94467 2.6864 6.172 3.2144 6.172C3.66173 6.172 4.0504 5.99967 4.3804 5.655C4.67373 5.347 4.8754 4.962 4.9854 4.5C4.77273 2.784 4.1824 1.926 3.2144 1.926Z" fill="#D71E00"/>
</svg>
