<svg width="482" height="77" viewBox="0 0 482 77" fill="none" xmlns="http://www.w3.org/2000/svg">
<g style="mix-blend-mode:soft-light">
<path d="M24.9408 35.1097L24.5118 33.5667C29.7277 31.083 32.3845 26.9811 32.3845 17.573C32.3845 8.33801 29.3062 3.71675 24.0903 3.71675C22.7205 3.71675 21.6969 3.88987 20.6658 4.05545V42.2071C20.6658 54.8667 21.1776 55.8075 26.3934 57.0042L28.9599 57.5988V59.3073C27.5073 59.3073 16.4735 59.1342 13.6511 59.1342C10.8287 59.1342 1.59371 59.3073 0.0507812 59.3073V57.5988L2.27108 57.087C6.38053 56.1462 7.05793 54.0086 7.05793 42.2899V17.6558C7.05793 5.93708 6.37301 3.79956 2.27108 2.85875L0.0507812 2.34695V0.638428C1.59371 0.638428 11.3405 0.811545 14.0801 0.811545C16.9025 0.811545 21.9528 0.728742 25.3698 0.728742C37.8562 0.728742 46.0676 6.54672 46.0676 17.0687C46.0676 27.4101 38.0294 33.055 24.9408 35.1097Z" fill="white"/>
<path d="M112.383 39.9409L118.179 50.335C121.001 55.3853 122.288 56.7476 124.937 57.4325L125.622 57.6056V59.3141C123.914 59.3141 119.631 59.2313 117.155 59.2313C115.785 59.2313 110.223 59.2313 108.688 59.3141C108.003 57.0035 106.723 54.3541 104.925 50.9296L99.1065 40.0689H98.6775V47.5954C98.6775 55.1218 99.5356 56.8304 102.268 57.4325L103.035 57.6056V59.3141C101.237 59.3141 95.4261 59.2313 92.1747 59.2313C88.9232 59.2313 82.8494 59.3141 81.2236 59.3141V57.6056L82.4204 57.3497C85.0697 56.7476 85.8449 55.2949 85.8449 46.06V14.5542C85.8449 9.59421 85.16 8.30718 82.5107 6.34277L81.2312 5.40196V4.12245L97.3152 0.615112L98.6851 1.63872V36.9981L105.527 28.8695C109.034 24.76 109.546 23.3977 109.546 22.201C109.546 21.2602 109.117 20.4925 106.723 19.7173L105.609 19.3786V17.7529C107.318 17.7529 112.195 17.8357 115.447 17.8357C118.608 17.8357 121.603 17.7529 123.402 17.7529V19.3786L122.634 19.5517C119.3 20.3194 115.702 22.201 110.487 27.7631L107.408 31.0146L112.383 39.9409Z" fill="white"/>
<path d="M136.22 35.9594C136.822 46.075 142.467 52.1639 150.076 52.1639C152.816 52.1639 155.465 51.5919 158.889 48.7921L159.913 50.192C154.697 56.6873 149.647 59.3216 142.376 59.3216C132.712 59.3216 124.584 52.4951 124.584 39.828C124.584 26.4234 134.421 17.7905 144.597 17.7905C155.63 17.7905 160.417 24.6998 160.59 35.967H136.22V35.9594ZM147.856 32.8359C147.6 24.2031 145.891 20.7484 142.211 20.7484C138.448 20.7484 136.137 24.6923 136.054 32.8359H147.856Z" fill="white"/>
<path d="M192.585 30.7513C190.192 30.7513 188.476 30.3223 184.118 28.8696C182.839 29.2987 181.808 29.8105 181.04 30.2395V45.9698C181.04 55.3779 181.725 56.3187 186.685 57.4326L187.452 57.6057V59.3142C185.654 59.3142 177.615 59.2314 174.364 59.2314C171.03 59.2314 165.212 59.3142 163.586 59.3142V57.6057L164.783 57.267C167.522 56.4993 168.207 55.3026 168.207 46.0601V31.7824C168.207 26.7321 167.522 25.2795 164.956 23.571L163.586 22.6302V21.2604L179.67 17.7531L181.04 18.7766V27.3267C185.315 19.9734 188.393 17.8358 191.818 17.8358C194.896 17.8358 197.034 19.7174 197.034 23.142C197.034 28.6965 195.069 30.7513 192.585 30.7513Z" fill="white"/>
<path d="M242.885 42.5527L239.724 59.2314H231.256C226.808 59.2314 215.345 59.1486 212.606 59.1486C209.866 59.1486 199.261 59.3217 197.553 59.3217V57.6132L199.773 57.1014C203.883 56.1606 204.56 54.0231 204.56 42.3043V17.6702C204.56 5.95146 203.875 3.81394 199.773 2.87313L197.553 2.36133V0.652832C199.096 0.652832 208.331 0.825926 211.153 0.825926C213.976 0.825926 225.009 0.652832 226.462 0.652832V2.36133L223.895 2.96344C218.68 4.16015 218.168 5.27407 218.168 17.7605V45.6461C218.168 54.6252 219.538 56.1681 225.356 56.1681H225.958C230.579 56.1681 233.83 54.0306 237.676 47.5277L240.582 42.5678H242.885V42.5527Z" fill="white"/>
<path d="M267.007 59.3142C265.382 59.3142 259.654 59.2314 256.312 59.2314C253.061 59.2314 246.558 59.3142 244.94 59.3142V57.6057L246.136 57.267C248.786 56.4993 249.561 55.3026 249.561 46.0601V31.1727C249.561 26.2127 248.793 25.1816 246.227 23.4731L244.947 22.6151V21.2453L260.941 17.7379L262.484 18.7615V46.045C262.484 55.1972 263.169 56.567 265.735 57.2519L267.022 57.5906V59.3142H267.007ZM255.281 11.6415C251.525 11.6415 248.846 9.25559 248.846 5.92889C248.846 2.60218 251.518 0.14856 255.281 0.14856C258.894 0.14856 261.641 2.60971 261.641 5.92889C261.641 9.25559 258.894 11.6415 255.281 11.6415ZM345.132 11.6415C341.376 11.6415 338.697 9.25559 338.697 5.92889C338.697 2.60218 341.369 0.14856 345.132 0.14856C348.745 0.14856 351.492 2.60971 351.492 5.92889C351.492 9.25559 348.745 11.6415 345.132 11.6415Z" fill="white"/>
<path d="M284.883 59.3142C279.833 59.3142 274.444 58.1551 270.936 56.5745V45.8643H275.558C277.01 52.6683 280.691 56.4089 285.651 56.4089C289.331 56.4089 291.469 54.2489 291.469 51.0125C291.469 46.617 286.591 45.3676 281.631 43.3731C276.416 41.2958 271.192 38.3906 271.192 30.3372C271.192 23.9473 277.093 17.7153 285.906 17.7153C290.866 17.7153 295.744 18.7916 298.227 20.3722V30.5856H293.44C292.071 23.7817 289.504 20.6206 285.146 20.6206C282.241 20.6206 280.359 22.6979 280.359 25.7687C280.359 29.419 283.355 31.0824 287.118 32.5726C293.365 35.0639 300.463 37.1412 300.463 46.1052C300.448 54.3316 293.267 59.3142 284.883 59.3142Z" fill="white"/>
<path d="M331.155 54.2038C327.994 57.3725 323.802 59.3369 319.263 59.3369C312.249 59.3369 308.147 56.4317 308.147 48.3859V22.3367H302.585V19.8605L308.237 17.7983L316.614 4.31836H321.062V17.8058H330.132V22.3367H321.062V49.0708C321.062 52.5781 322.771 53.7748 325.081 53.7748C326.707 53.7748 327.987 53.4361 329.785 52.3222L331.155 54.2038Z" fill="white"/>
<path d="M356.128 59.3142C354.502 59.3142 348.775 59.2314 345.433 59.2314C342.182 59.2314 335.679 59.3142 334.061 59.3142V57.6057L335.257 57.267C337.907 56.4993 338.682 55.3026 338.682 46.0601V31.6695C338.682 26.7095 337.914 25.1666 335.348 23.4581L334.068 22.6001V21.2302L350.062 17.7229L351.605 18.7465V46.0525C351.605 55.2047 352.29 56.5746 354.856 57.2595L356.143 57.5982V59.3142H356.128Z" fill="white"/>
<path d="M405.57 59.3141C404.027 59.3141 397.87 59.2313 394.619 59.2313C391.458 59.2313 385.895 59.3141 384.097 59.3141V57.6356L384.864 57.4701C387.604 56.883 388.372 55.2046 388.372 47.8136V32.6101C388.372 27.319 386.317 24.9707 382.471 24.9707C380.845 24.9707 379.566 25.2191 377.94 25.7234V47.8136C377.94 55.2046 378.798 56.883 381.62 57.4701L382.388 57.6356V59.3141C380.589 59.3141 374.771 59.2313 371.437 59.2313C368.186 59.2313 362.112 59.3141 360.486 59.3141V57.6356L361.683 57.2969C364.332 56.5368 365.107 55.3626 365.107 46.2932V31.5113C365.107 26.5588 364.34 25.1288 361.856 23.4504L360.486 22.5246V21.1774L376.563 17.7378L377.932 18.7463V23.6235C381.952 20.1839 386.49 17.9109 391.021 17.9109C397.78 17.9109 401.287 22.0279 401.287 29.9232V46.3008C401.287 55.5358 401.972 56.7099 404.877 57.4701L405.562 57.6356V59.3141H405.57Z" fill="white"/>
<path d="M448.681 18.1218V25.1215H441.072C441.93 26.7246 442.351 28.5836 442.351 30.6083C442.351 39.4669 433.801 44.615 425.244 44.615C423.279 44.615 421.48 44.4494 419.772 44.028C419.343 44.7053 419.087 45.5483 419.087 46.2182C419.087 47.2342 419.682 47.9041 421.992 48.16C426.267 48.5815 431.912 48.9202 435.337 49.2589C443.119 50.019 446.544 53.564 446.544 58.9605C446.544 68.8352 436.451 76.3391 423.535 76.3391C413.781 76.3391 407.97 72.8769 407.97 66.8031C407.97 63.3409 410.191 60.3077 414.127 57.6885C411.99 56.5897 410.447 54.3167 410.447 52.4576C410.447 49.3341 411.899 46.7225 417.544 43.3431C412.494 41.4012 409.416 37.5176 409.416 31.8652C409.416 23.0065 417.973 17.7756 426.523 17.7756C431.912 17.7756 436.187 19.3788 438.927 22.1636L448.681 18.1218ZM417.461 61.9109C417.461 69.0836 421.827 72.8769 429.353 72.8769C435.6 72.8769 439.273 69.2492 439.273 65.3655C439.273 62.0765 438.159 60.4733 430.204 59.5476C427.381 59.2089 422.248 59.1261 417.717 58.5315C417.544 59.4648 417.461 60.812 417.461 61.9109ZM425.673 20.3196C422.083 20.3196 421.051 24.1129 421.051 30.4427C421.051 38.0369 422.331 42.1689 426.094 42.1689C429.684 42.1689 430.715 38.3756 430.715 32.0458C430.715 24.4516 429.436 20.3196 425.673 20.3196Z" fill="white"/>
<path d="M465.616 59.3216C460.573 59.3216 455.184 58.1625 451.677 56.5819V45.8718H456.298C457.75 52.6757 461.431 56.4088 466.391 56.4088C470.071 56.4088 472.209 54.2487 472.209 51.0124C472.209 46.6169 467.332 45.3675 462.372 43.3805C457.156 41.3032 451.932 38.398 451.932 30.3522C451.932 23.9622 457.833 17.7378 466.647 17.7378C471.607 17.7378 476.484 18.8141 478.968 20.3946V30.6005H474.181C472.811 23.7966 470.244 20.643 465.887 20.643C462.981 20.643 461.1 22.7203 461.1 25.7911C461.1 29.4415 464.095 31.1048 467.858 32.5951C474.105 35.0863 481.203 37.1561 481.203 46.1201C481.18 54.3391 474 59.3216 465.616 59.3216Z" fill="white"/>
<path d="M77.1143 32.5198C77.1067 32.5123 77.0992 32.5048 77.0917 32.4973C76.053 31.3758 72.4478 29.7049 71.3339 29.0878C66.0278 26.5514 62.5129 22.8483 61.2485 17.7905H59.284C58.0271 22.8483 54.5123 26.5514 49.1986 29.0878C48.0846 29.7049 44.4719 31.3758 43.4408 32.4973C43.4333 32.5048 43.4258 32.5123 43.4182 32.5198C40.4528 34.8531 38.654 38.6088 39.098 42.7709C39.6625 48.0695 43.9601 52.3521 49.2588 52.9015C52.1414 53.2026 54.8284 52.4274 56.9885 50.9296V52.6908C56.9885 57.3045 56.6046 57.9066 55.2799 58.2905L54.6854 58.4636V59.3216C55.4982 59.3216 58.7421 59.2764 60.3679 59.2764C62.0312 59.2764 64.8988 59.3216 65.7117 59.3216V58.4636L65.0719 58.2905C63.7924 57.9518 63.4462 57.2669 63.4462 52.6908V50.8543C65.6138 52.3897 68.3384 53.1951 71.2662 52.894C76.5648 52.3446 80.8624 48.062 81.4269 42.7634C81.8785 38.6087 80.0797 34.8531 77.1143 32.5198Z" fill="white"/>
<path d="M76.2292 32.6556C76.2217 32.6481 76.2142 32.6405 76.2067 32.633C75.168 31.5116 71.5628 29.8407 70.4489 29.2235C65.1428 26.6871 61.6279 22.9841 60.3634 17.9263H58.399C57.1421 22.9841 53.6272 26.6871 48.3136 29.2235C47.1996 29.8407 43.5869 31.5116 42.5558 32.633C42.5483 32.6405 42.5408 32.6481 42.5332 32.6556C39.5678 34.9888 37.769 38.7445 38.213 42.9066C38.7775 48.2053 43.0751 52.4878 48.3738 53.0373C51.2564 53.3383 53.9434 52.5631 56.1035 51.0653V52.8265C56.1035 57.4403 55.7196 58.0424 54.3949 58.4262L53.8004 58.5993V59.4573C54.6132 59.4573 57.8571 59.4122 59.4828 59.4122C61.1462 59.4122 64.0138 59.4573 64.8266 59.4573V58.5993L64.1869 58.4262C62.9074 58.0875 62.5612 57.4026 62.5612 52.8265V50.9901C64.7288 52.5255 67.4534 53.3308 70.3812 53.0298C75.6798 52.4803 79.9774 48.1977 80.5419 42.8991C80.9935 38.7445 79.1947 34.9888 76.2292 32.6556Z" fill="#E8E8E8"/>
<path d="M59.7333 38.2437V35.7041V31.8945L59.4829 17.9263H58.3991C57.1421 22.9841 53.6273 26.6871 48.3136 29.2235C47.1997 29.8407 43.587 31.5116 42.5558 32.633C42.5483 32.6405 42.5408 32.6481 42.5333 32.6556C39.5678 34.9888 37.769 38.7445 38.213 42.9066C38.7775 48.2053 43.0752 52.4878 48.3738 53.0373C51.2564 53.3383 53.9434 52.5631 56.1035 51.0653V52.8265C56.1035 57.4403 55.7196 58.0424 54.395 58.4262L53.8004 58.5993V59.4573C54.6133 59.4573 58.1076 59.4573 59.7333 59.4573V58.4262V57.2914V56.0215V53.4818V51.0653V48.4025V44.5929V40.7834V38.2437Z" fill="white"/>
</g>
</svg>
