<svg width="433" height="70" viewBox="0 0 433 70" fill="none" xmlns="http://www.w3.org/2000/svg">
<path d="M22.7097 32.3184L22.3241 30.9316C27.0119 28.6993 29.3998 25.0126 29.3998 16.557C29.3998 8.25689 26.6331 4.10347 21.9453 4.10347C20.7142 4.10347 19.7942 4.25906 18.8674 4.40788V38.6973C18.8674 50.0752 19.3274 50.9208 24.0152 51.9964L26.3219 52.5308V54.0663C25.0164 54.0663 15.0996 53.9107 12.5629 53.9107C10.0262 53.9107 1.72611 54.0663 0.339378 54.0663V52.5308L2.3349 52.0708C6.02834 51.2252 6.63716 49.3041 6.63716 38.7717V16.6314C6.63716 6.09902 6.02157 4.17789 2.3349 3.33232L0.339378 2.87234V1.33678C1.72611 1.33678 10.4862 1.49237 12.9485 1.49237C15.4852 1.49237 20.0242 1.41795 23.0953 1.41795C34.3176 1.41795 41.6977 6.64695 41.6977 16.1038C41.6977 25.3982 34.4732 30.4716 22.7097 32.3184Z" fill="#00B466"/>
<path d="M101.3 36.6605L106.509 46.0023C109.045 50.5413 110.202 51.7657 112.583 52.3813L113.199 52.5368V54.0724C111.663 54.0724 107.814 53.998 105.589 53.998C104.358 53.998 99.3587 53.998 97.9787 54.0724C97.3631 51.9957 96.2132 49.6146 94.5964 46.5367L89.3675 36.7755H88.9819V43.54C88.9819 50.3046 89.753 51.8401 92.2086 52.3813L92.8985 52.5368V54.0724C91.2818 54.0724 86.0596 53.998 83.1373 53.998C80.215 53.998 74.7561 54.0724 73.2949 54.0724V52.5368L74.3705 52.3068C76.7516 51.7657 77.4483 50.4601 77.4483 42.16V13.8437C77.4483 9.38588 76.8328 8.22915 74.4517 6.4636L73.3017 5.61804V4.46806L87.7575 1.31578L88.9886 2.23577V34.0155L95.1376 26.7099C98.2899 23.0164 98.7499 21.792 98.7499 20.7165C98.7499 19.8709 98.3643 19.1809 96.2132 18.4842L95.212 18.1798V16.7186C96.7476 16.7186 101.131 16.793 104.053 16.793C106.894 16.793 109.587 16.7186 111.203 16.7186V18.1798L110.513 18.3354C107.517 19.0253 104.283 20.7165 99.5954 25.7155L96.8287 28.6377L101.3 36.6605Z" fill="#00B466"/>
<path d="M122.723 33.0821C123.265 42.1736 128.338 47.6461 135.177 47.6461C137.639 47.6461 140.02 47.132 143.098 44.6156L144.018 45.8738C139.33 51.7116 134.791 54.0792 128.257 54.0792C119.571 54.0792 112.265 47.9437 112.265 36.559C112.265 24.5114 121.107 16.7525 130.252 16.7525C140.169 16.7525 144.471 22.9623 144.627 33.0888H122.723V33.0821ZM133.181 30.2748C132.951 22.5158 131.416 19.4109 128.108 19.4109C124.726 19.4109 122.649 22.9555 122.575 30.2748H133.181Z" fill="#00B466"/>
<path d="M173.383 28.4011C171.232 28.4011 169.689 28.0155 165.773 26.71C164.623 27.0955 163.696 27.5555 163.006 27.9411V42.079C163.006 50.5346 163.622 51.3802 168.079 52.3814L168.769 52.5369V54.0725C167.153 54.0725 159.928 53.9981 157.006 53.9981C154.009 53.9981 148.78 54.0725 147.319 54.0725V52.5369L148.395 52.2326C150.857 51.5426 151.473 50.467 151.473 42.1602V29.3278C151.473 24.7888 150.857 23.4833 148.55 21.9477L147.319 21.1022V19.871L161.775 16.7188L163.006 17.6387V25.3232C166.848 18.7143 169.615 16.7931 172.693 16.7931C175.46 16.7931 177.381 18.4843 177.381 21.5621C177.381 26.5544 175.615 28.4011 173.383 28.4011Z" fill="#00B466"/>
<path d="M218.59 39.0078L215.749 53.998H208.139C204.141 53.998 193.839 53.9236 191.376 53.9236C188.914 53.9236 179.383 54.0792 177.847 54.0792V52.5436L179.843 52.0836C183.536 51.2381 184.145 49.3169 184.145 38.7846V16.6442C184.145 6.11186 183.53 4.19073 179.843 3.34516L177.847 2.88518V1.34964C179.234 1.34964 187.534 1.50521 190.071 1.50521C192.608 1.50521 202.524 1.34964 203.83 1.34964V2.88518L201.523 3.42634C196.835 4.5019 196.375 5.50305 196.375 16.7254V41.788C196.375 49.8581 197.607 51.2448 202.836 51.2448H203.377C207.53 51.2448 210.452 49.3237 213.909 43.4792L216.52 39.0213H218.59V39.0078Z" fill="#00B466"/>
<path d="M240.271 54.0725C238.81 54.0725 233.662 53.998 230.658 53.998C227.736 53.998 221.891 54.0725 220.437 54.0725V52.5369L221.513 52.2325C223.894 51.5425 224.591 50.467 224.591 42.1601V28.7799C224.591 24.322 223.901 23.3953 221.594 21.8597L220.444 21.0886V19.8574L234.818 16.7052L236.205 17.6252V42.1466C236.205 50.3723 236.821 51.6034 239.127 52.219L240.284 52.5234V54.0725H240.271ZM229.732 11.2259C226.356 11.2259 223.948 9.08154 223.948 6.09161C223.948 3.10169 226.349 0.896454 229.732 0.896454C232.979 0.896454 235.448 3.10845 235.448 6.09161C235.448 9.08154 232.979 11.2259 229.732 11.2259ZM310.487 11.2259C307.111 11.2259 304.703 9.08154 304.703 6.09161C304.703 3.10169 307.104 0.896454 310.487 0.896454C313.734 0.896454 316.203 3.10845 316.203 6.09161C316.203 9.08154 313.734 11.2259 310.487 11.2259Z" fill="#00B466"/>
<path d="M256.337 54.0725C251.798 54.0725 246.954 53.0307 243.802 51.6102V41.9842H247.955C249.261 48.0994 252.569 51.4614 257.027 51.4614C260.334 51.4614 262.256 49.52 262.256 46.6112C262.256 42.6607 257.872 41.5378 253.414 39.7452C248.726 37.8782 244.032 35.2671 244.032 28.029C244.032 22.2859 249.335 16.6849 257.257 16.6849C261.714 16.6849 266.098 17.6522 268.33 19.0728V28.2522H264.028C262.797 22.1371 260.49 19.296 256.573 19.296C253.962 19.296 252.271 21.163 252.271 23.923C252.271 27.2037 254.963 28.6987 258.346 30.0381C263.96 32.2772 270.339 34.1442 270.339 42.2007C270.326 49.5943 263.872 54.0725 256.337 54.0725Z" fill="#00B466"/>
<path d="M297.925 49.4794C295.084 52.3273 291.316 54.0929 287.237 54.0929C280.932 54.0929 277.245 51.4817 277.245 44.2504V20.8384H272.246V18.6129L277.327 16.7594L284.856 4.6441H288.853V16.7661H297.005V20.8384H288.853V44.866C288.853 48.0183 290.389 49.0939 292.466 49.0939C293.927 49.0939 295.077 48.7895 296.694 47.7883L297.925 49.4794Z" fill="#00B466"/>
<path d="M320.37 54.0725C318.908 54.0725 313.761 53.9981 310.757 53.9981C307.835 53.9981 301.99 54.0725 300.536 54.0725V52.537L301.612 52.2326C303.993 51.5426 304.689 50.467 304.689 42.1602V29.2264C304.689 24.7685 303.999 23.3818 301.693 21.8463L300.543 21.0751V19.844L314.917 16.6917L316.304 17.6117V42.1534C316.304 50.3791 316.92 51.6102 319.226 52.2258L320.383 52.5302V54.0725H320.37Z" fill="#00B466"/>
<path d="M364.806 54.0724C363.419 54.0724 357.886 53.998 354.963 53.998C352.122 53.998 347.123 54.0724 345.507 54.0724V52.5639L346.197 52.4151C348.659 51.8875 349.349 50.379 349.349 43.7362V30.0718C349.349 25.3164 347.502 23.2058 344.045 23.2058C342.584 23.2058 341.434 23.4291 339.973 23.8823V43.7362C339.973 50.379 340.744 51.8875 343.281 52.4151L343.971 52.5639V54.0724C342.354 54.0724 337.125 53.998 334.129 53.998C331.206 53.998 325.747 54.0724 324.286 54.0724V52.5639L325.362 52.2595C327.743 51.5763 328.44 50.521 328.44 42.3698V29.0842C328.44 24.6332 327.75 23.3479 325.517 21.8394L324.286 21.0074V19.7965L338.735 16.7051L339.967 17.6116V21.995C343.579 18.9036 347.658 16.8607 351.73 16.8607C357.805 16.8607 360.957 20.5609 360.957 27.6569V42.3765C360.957 50.6766 361.572 51.7319 364.184 52.4151L364.799 52.5639V54.0724H364.806Z" fill="#00B466"/>
<path d="M403.553 17.0502V23.3412H396.714C397.485 24.7821 397.864 26.4529 397.864 28.2726C397.864 36.2344 390.18 40.8614 382.488 40.8614C380.723 40.8614 379.106 40.7126 377.57 40.3337C377.185 40.9425 376.955 41.7002 376.955 42.3022C376.955 43.2154 377.489 43.8175 379.566 44.0475C383.408 44.4263 388.482 44.7307 391.559 45.0351C398.554 45.7183 401.632 48.9044 401.632 53.7546C401.632 62.6297 392.561 69.3739 380.953 69.3739C372.186 69.3739 366.964 66.2622 366.964 60.8032C366.964 57.6915 368.959 54.9654 372.497 52.6114C370.576 51.6238 369.189 49.5809 369.189 47.91C369.189 45.1027 370.495 42.7555 375.568 39.7182C371.029 37.9729 368.262 34.4824 368.262 29.4023C368.262 21.4404 375.954 16.7391 383.638 16.7391C388.482 16.7391 392.324 18.1799 394.786 20.6828L403.553 17.0502ZM375.494 56.4063C375.494 62.8529 379.417 66.2622 386.182 66.2622C391.796 66.2622 395.097 63.0017 395.097 59.5112C395.097 56.5551 394.096 55.1143 386.946 54.2822C384.409 53.9778 379.796 53.9034 375.724 53.369C375.568 54.2078 375.494 55.4187 375.494 56.4063ZM382.874 19.0255C379.647 19.0255 378.72 22.4348 378.72 28.1238C378.72 34.9492 379.87 38.6629 383.253 38.6629C386.479 38.6629 387.406 35.2536 387.406 29.5646C387.406 22.7392 386.256 19.0255 382.874 19.0255Z" fill="#00B466"/>
<path d="M418.773 54.0792C414.241 54.0792 409.397 53.0374 406.245 51.6169V41.9909H410.399C411.704 48.1061 415.012 51.4613 419.47 51.4613C422.778 51.4613 424.699 49.5199 424.699 46.6111C424.699 42.6606 420.315 41.5377 415.858 39.7519C411.17 37.8849 406.475 35.2738 406.475 28.0425C406.475 22.2994 411.779 16.7051 419.7 16.7051C424.158 16.7051 428.541 17.6724 430.773 19.093V28.2657H426.471C425.24 22.1506 422.933 19.3162 419.017 19.3162C416.405 19.3162 414.714 21.1832 414.714 23.9432C414.714 27.224 417.407 28.7189 420.789 30.0583C426.403 32.2974 432.782 34.1576 432.782 42.2142C432.762 49.6011 426.309 54.0792 418.773 54.0792Z" fill="#00B466"/>
<path d="M69.6014 29.9907C69.5946 29.9839 69.5878 29.9771 69.5811 29.9704C68.6476 28.9625 65.4073 27.4607 64.4062 26.906C59.6372 24.6264 56.4782 21.2982 55.3417 16.7525H53.5762C52.4465 21.2982 49.2875 24.6264 44.5117 26.906C43.5105 27.4607 40.2636 28.9625 39.3368 29.9704C39.3301 29.9771 39.3233 29.9839 39.3165 29.9907C36.6513 32.0877 35.0346 35.4632 35.4337 39.204C35.941 43.9662 39.8036 47.8152 44.5658 48.309C47.1566 48.5796 49.5716 47.8829 51.513 46.5367V48.1196C51.513 52.2663 51.168 52.8074 49.9774 53.1524L49.443 53.308V54.0792C50.1736 54.0792 53.0891 54.0386 54.5503 54.0386C56.0452 54.0386 58.6225 54.0792 59.3531 54.0792V53.308L58.7781 53.1524C57.6281 52.848 57.317 52.2324 57.317 48.1196V46.4691C59.2651 47.849 61.7139 48.5729 64.3453 48.3023C69.1075 47.8085 72.9701 43.9594 73.4774 39.1972C73.8833 35.4632 72.2666 32.0877 69.6014 29.9907Z" fill="#00B466"/>
<path d="M68.806 30.1127C68.7992 30.1059 68.7924 30.0992 68.7857 30.0924C67.8521 29.0845 64.6119 27.5828 63.6108 27.0281C58.8418 24.7484 55.6828 21.4203 54.5463 16.8745H52.7808C51.6511 21.4203 48.4921 24.7484 43.7163 27.0281C42.7151 27.5828 39.4682 29.0845 38.5414 30.0924C38.5347 30.0992 38.5279 30.1059 38.5211 30.1127C35.8559 32.2097 34.2392 35.5852 34.6383 39.326C35.1456 44.0882 39.0082 47.9372 43.7704 48.431C46.3612 48.7016 48.7762 48.0049 50.7176 46.6587V48.2416C50.7176 52.3883 50.3726 52.9295 49.182 53.2745L48.6476 53.43V54.2012C49.3782 54.2012 52.2937 54.1606 53.7549 54.1606C55.2498 54.1606 57.8271 54.2012 58.5577 54.2012V53.43L57.9827 53.2745C56.8327 52.9701 56.5216 52.3545 56.5216 48.2416V46.5911C58.4697 47.9711 60.9185 48.6949 63.5499 48.4243C68.3121 47.9305 72.1747 44.0814 72.682 39.3192C73.0879 35.5852 71.4712 32.2097 68.806 30.1127Z" fill="#00B466"/>
<path d="M53.98 35.1351V32.8526V29.4287L53.7549 16.8745H52.7808C51.6511 21.4203 48.4921 24.7484 43.7163 27.0281C42.7152 27.5828 39.4682 29.0845 38.5415 30.0924C38.5347 30.0992 38.5279 30.1059 38.5212 30.1127C35.8559 32.2097 34.2392 35.5852 34.6383 39.326C35.1456 44.0882 39.0082 47.9372 43.7704 48.431C46.3612 48.7016 48.7762 48.0049 50.7176 46.6587V48.2416C50.7176 52.3883 50.3726 52.9295 49.1821 53.2745L48.6477 53.43V54.2012C49.3782 54.2012 52.5189 54.2012 53.98 54.2012V53.2745V52.2545V51.1132V48.8306V46.6587V44.2655V40.8416V37.4177V35.1351Z" fill="#00B466"/>
</svg>
