<svg class="IndexPage_Controller" width="190" height="30" viewBox="0 0 190 30" fill="none" xmlns="http://www.w3.org/2000/svg">
	<path d="M9.80045 13.7657L9.63153 13.1581C11.6853 12.1802 12.7314 10.565 12.7314 6.86061C12.7314 3.22434 11.5193 1.40472 9.46557 1.40472C8.92621 1.40472 8.52316 1.47288 8.11715 1.53808V16.5603C8.11715 21.545 8.31868 21.9154 10.3724 22.3866L11.383 22.6208V23.2935C10.811 23.2935 6.46645 23.2253 5.35512 23.2253C4.24379 23.2253 0.607527 23.2935 0 23.2935V22.6208L0.874241 22.4192C2.49234 22.0488 2.75906 21.2071 2.75906 16.5929V6.89321C2.75906 2.27897 2.48937 1.43732 0.874241 1.06688L0 0.865358V0.192627C0.607527 0.192627 4.44532 0.260792 5.52405 0.260792C6.63538 0.260792 8.62392 0.228188 9.96937 0.228188C14.8859 0.228188 18.1191 2.51902 18.1191 6.66206C18.1191 10.734 14.9541 12.9566 9.80045 13.7657Z" fill="white"></path>
	<path d="M44.231 15.6683L46.5129 19.7609C47.6242 21.7495 48.131 22.2859 49.1742 22.5556L49.4438 22.6237V23.2965C48.7711 23.2965 47.0849 23.2639 46.1099 23.2639C45.5705 23.2639 43.3804 23.2639 42.7759 23.2965C42.5062 22.3867 42.0024 21.3435 41.2941 19.9951L39.0033 15.7187H38.8344V18.6822C38.8344 21.6458 39.1722 22.3185 40.248 22.5556L40.5502 22.6237V23.2965C39.842 23.2965 37.5541 23.2639 36.2739 23.2639C34.9936 23.2639 32.602 23.2965 31.9619 23.2965V22.6237L32.4331 22.523C33.4763 22.2859 33.7815 21.7139 33.7815 18.0777V5.67224C33.7815 3.71926 33.5118 3.2125 32.4687 2.43901L31.9648 2.06857V1.56476L38.298 0.183746L38.8373 0.586794V14.5095L41.5312 11.3089C42.9122 9.69081 43.1137 9.1544 43.1137 8.6832C43.1137 8.31276 42.9448 8.01048 42.0024 7.70523L41.5638 7.57187V6.93175C42.2365 6.93175 44.1569 6.96435 45.4371 6.96435C46.6818 6.96435 47.8613 6.93175 48.5696 6.93175V7.57187L48.2673 7.64003C46.9545 7.94232 45.5379 8.6832 43.4842 10.8733L42.2721 12.1535L44.231 15.6683Z" fill="white"></path>
	<path d="M53.6165 14.1006C53.8536 18.0836 56.0763 20.4811 59.0724 20.4811C60.1511 20.4811 61.1943 20.2559 62.5427 19.1534L62.9457 19.7046C60.892 22.2622 58.9035 23.2994 56.0407 23.2994C52.2355 23.2994 49.0349 20.6115 49.0349 15.6238C49.0349 10.3458 52.9082 6.94656 56.9149 6.94656C61.2595 6.94656 63.1443 9.6671 63.2125 14.1035H53.6165V14.1006ZM58.1982 12.8707C58.0974 9.4715 57.4247 8.11124 55.9755 8.11124C54.4937 8.11124 53.5839 9.66413 53.5513 12.8707H58.1982Z" fill="white"></path>
	<path d="M75.8105 12.0498C74.8681 12.0498 74.1924 11.8809 72.4765 11.3089C71.9727 11.4778 71.5667 11.6794 71.2644 11.8483V18.0421C71.2644 21.7465 71.5341 22.117 73.4871 22.5556L73.7894 22.6237V23.2965C73.0811 23.2965 69.916 23.2639 68.6357 23.2639C67.3229 23.2639 65.0321 23.2965 64.3919 23.2965V22.6237L64.8631 22.4904C65.9419 22.1881 66.2116 21.7169 66.2116 18.0777V12.4558C66.2116 10.4673 65.9419 9.8953 64.9313 9.22258L64.3919 8.85214V8.31277L70.725 6.93176L71.2644 7.3348V10.7014C72.9477 7.80601 74.1598 6.96436 75.5082 6.96436C76.7203 6.96436 77.5619 7.70524 77.5619 9.05365C77.5619 11.2408 76.7885 12.0498 75.8105 12.0498Z" fill="white"></path>
	<path d="M95.6159 16.6966L94.3712 23.2638H91.0372C89.2858 23.2638 84.7723 23.2312 83.6935 23.2312C82.6148 23.2312 78.4392 23.2994 77.7664 23.2994V22.6267L78.6407 22.4252C80.2588 22.0547 80.5255 21.2131 80.5255 16.5988V6.89913C80.5255 2.28488 80.2558 1.44323 78.6407 1.07279L77.7664 0.87127V0.198547C78.374 0.198547 82.0103 0.266703 83.1216 0.266703C84.2329 0.266703 88.5775 0.198547 89.1494 0.198547V0.87127L88.1389 1.10835C86.0851 1.57955 85.8836 2.01816 85.8836 6.93469V17.9146C85.8836 21.4501 86.423 22.0577 88.7138 22.0577H88.9509C90.7705 22.0577 92.0507 21.216 93.5651 18.6555L94.7091 16.7025H95.6159V16.6966Z" fill="white"></path>
	<path d="M105.114 23.2965C104.474 23.2965 102.219 23.2638 100.903 23.2638C99.6226 23.2638 97.0621 23.2965 96.425 23.2965V22.6237L96.8962 22.4904C97.9393 22.1881 98.2446 21.7169 98.2446 18.0776V12.2157C98.2446 10.2628 97.9423 9.85676 96.9317 9.18403L96.4279 8.84619V8.30682L102.725 6.92581L103.333 7.32886V18.0717C103.333 21.6754 103.603 22.2148 104.613 22.4844L105.12 22.6178V23.2965H105.114ZM100.497 4.52533C99.0181 4.52533 97.963 3.58589 97.963 2.276C97.963 0.966114 99.0151 0 100.497 0C101.919 0 103.001 0.969078 103.001 2.276C103.001 3.58589 101.919 4.52533 100.497 4.52533ZM135.876 4.52533C134.397 4.52533 133.342 3.58589 133.342 2.276C133.342 0.966114 134.394 0 135.876 0C137.298 0 138.38 0.969078 138.38 2.276C138.38 3.58589 137.298 4.52533 135.876 4.52533Z" fill="white"></path>
	<path d="M112.153 23.2965C110.164 23.2965 108.042 22.8401 106.661 22.2177V18.0006H108.481C109.053 20.6796 110.502 22.1525 112.455 22.1525C113.904 22.1525 114.746 21.302 114.746 20.0277C114.746 18.297 112.825 17.805 110.872 17.0197C108.819 16.2017 106.762 15.0578 106.762 11.8868C106.762 9.37075 109.085 6.91693 112.556 6.91693C114.509 6.91693 116.429 7.34072 117.407 7.96306V11.9846H115.522C114.983 9.30555 113.972 8.06087 112.256 8.06087C111.112 8.06087 110.371 8.8788 110.371 10.0879C110.371 11.5253 111.551 12.1802 113.033 12.767C115.492 13.7479 118.287 14.5658 118.287 18.0954C118.281 21.3346 115.454 23.2965 112.153 23.2965Z" fill="white"></path>
	<path d="M130.372 21.2842C129.128 22.5319 127.477 23.3054 125.69 23.3054C122.928 23.3054 121.313 22.1614 121.313 18.9934V8.73655H119.123V7.76154L121.348 6.94953L124.647 1.64182H126.398V6.95249H129.969V8.73655H126.398V19.2631C126.398 20.6441 127.071 21.1153 127.981 21.1153C128.621 21.1153 129.125 20.9819 129.833 20.5433L130.372 21.2842Z" fill="white"></path>
	<path d="M140.205 23.2965C139.565 23.2965 137.31 23.2639 135.994 23.2639C134.714 23.2639 132.153 23.2965 131.516 23.2965V22.6237L131.988 22.4904C133.031 22.1881 133.336 21.7169 133.336 18.0776V12.4113C133.336 10.4584 133.034 9.85084 132.023 9.17811L131.519 8.84027V8.30091L137.817 6.91989L138.424 7.32293V18.0747C138.424 21.6784 138.694 22.2177 139.705 22.4874L140.211 22.6208V23.2965H140.205Z" fill="white"></path>
	<path d="M159.673 23.2965C159.065 23.2965 156.641 23.2639 155.361 23.2639C154.116 23.2639 151.926 23.2965 151.218 23.2965V22.6356L151.52 22.5704C152.599 22.3392 152.901 21.6784 152.901 18.7682V12.7818C152.901 10.6984 152.092 9.77379 150.578 9.77379C149.938 9.77379 149.434 9.87158 148.794 10.0701V18.7682C148.794 21.6784 149.132 22.3392 150.243 22.5704L150.545 22.6356V23.2965C149.837 23.2965 147.546 23.2639 146.233 23.2639C144.953 23.2639 142.561 23.2965 141.921 23.2965V22.6356L142.393 22.5022C143.436 22.2029 143.741 21.7406 143.741 18.1695V12.3491C143.741 10.3991 143.439 9.83601 142.461 9.17514L141.921 8.81063V8.28016L148.251 6.92581L148.791 7.32293V9.24331C150.373 7.88897 152.16 6.99398 153.944 6.99398C156.606 6.99398 157.987 8.61503 157.987 11.7238V18.1725C157.987 21.8088 158.256 22.2711 159.4 22.5704L159.67 22.6356V23.2965H159.673Z" fill="white"></path>
	<path d="M176.648 7.07696V9.83306H173.652C173.99 10.4643 174.156 11.1963 174.156 11.9935C174.156 15.4816 170.789 17.5087 167.42 17.5087C166.646 17.5087 165.938 17.4434 165.265 17.2775C165.096 17.5442 164.996 17.8761 164.996 18.1399C164.996 18.54 165.23 18.8037 166.139 18.9045C167.823 19.0704 170.045 19.2038 171.394 19.3372C174.458 19.6365 175.807 21.0323 175.807 23.1572C175.807 27.0454 171.832 30 166.747 30C162.906 30 160.618 28.6368 160.618 26.2452C160.618 24.882 161.493 23.6877 163.043 22.6563C162.201 22.2237 161.593 21.3287 161.593 20.5967C161.593 19.3668 162.165 18.3384 164.388 17.0078C162.399 16.2432 161.187 14.714 161.187 12.4884C161.187 9.00031 164.557 6.94064 167.924 6.94064C170.045 6.94064 171.729 7.57188 172.807 8.66839L176.648 7.07696ZM164.355 24.3189C164.355 27.1431 166.074 28.6368 169.038 28.6368C171.498 28.6368 172.944 27.2083 172.944 25.6792C172.944 24.3841 172.505 23.7529 169.373 23.3883C168.261 23.255 166.24 23.2224 164.456 22.9883C164.388 23.3557 164.355 23.8862 164.355 24.3189ZM167.589 7.94231C166.175 7.94231 165.769 9.43595 165.769 11.9283C165.769 14.9185 166.273 16.5455 167.755 16.5455C169.168 16.5455 169.574 15.0519 169.574 12.5595C169.574 9.56931 169.07 7.94231 167.589 7.94231Z" fill="white"></path>
	<path d="M183.316 23.2994C181.331 23.2994 179.209 22.843 177.828 22.2207V18.0036H179.647C180.219 20.6826 181.668 22.1525 183.621 22.1525C185.071 22.1525 185.912 21.302 185.912 20.0277C185.912 18.297 183.992 17.805 182.039 17.0226C179.985 16.2047 177.928 15.0608 177.928 11.8927C177.928 9.37667 180.252 6.92581 183.722 6.92581C185.675 6.92581 187.596 7.3496 188.574 7.97194V11.9905H186.689C186.149 9.31147 185.139 8.06975 183.423 8.06975C182.279 8.06975 181.538 8.88768 181.538 10.0968C181.538 11.5341 182.718 12.1891 184.199 12.7759C186.659 13.7568 189.454 14.5718 189.454 18.1014C189.445 21.3376 186.618 23.2994 183.316 23.2994Z" fill="white"></path>
	<path d="M30.3438 12.7462C30.3408 12.7433 30.3378 12.7403 30.3349 12.7373C29.9259 12.2958 28.5064 11.6379 28.0678 11.3949C25.9784 10.3961 24.5945 8.93807 24.0966 6.94656H23.3231C22.8282 8.93807 21.4442 10.3961 19.352 11.3949C18.9134 11.6379 17.4908 12.2958 17.0848 12.7373C17.0819 12.7403 17.0789 12.7433 17.076 12.7462C15.9083 13.6649 15.2 15.1437 15.3749 16.7826C15.5971 18.8689 17.2893 20.5552 19.3757 20.7715C20.5107 20.8901 21.5687 20.5848 22.4192 19.9951V20.6885C22.4192 22.5052 22.2681 22.7423 21.7465 22.8934L21.5124 22.9616V23.2994C21.8324 23.2994 23.1097 23.2816 23.7499 23.2816C24.4048 23.2816 25.5339 23.2994 25.854 23.2994V22.9616L25.6021 22.8934C25.0983 22.7601 24.9619 22.4904 24.9619 20.6885V19.9654C25.8155 20.57 26.8883 20.8871 28.0411 20.7686C30.1274 20.5522 31.8196 18.866 32.0419 16.7796C32.2197 15.1437 31.5114 13.6649 30.3438 12.7462Z" fill="white"></path>
</svg>