<svg width="7" height="11" viewBox="0 0 7 11" fill="none" xmlns="http://www.w3.org/2000/svg">
<path d="M2.0341 6.183C2.48143 6.23433 2.92877 6.43967 3.3761 6.799C3.65477 7.019 4.01043 7.371 4.4431 7.855V2.916C4.4431 2.652 4.31477 2.41367 4.0581 2.201C3.80877 1.98833 3.53743 1.882 3.2441 1.882C2.95077 1.882 2.67577 1.98833 2.4191 2.201C2.16243 2.41367 2.0341 2.652 2.0341 2.916V6.183ZM3.9041 8.911L2.4851 7.525C2.36777 7.40767 2.21743 7.33433 2.0341 7.305V8.097C2.0341 8.35367 2.16243 8.58833 2.4191 8.801C2.67577 9.01367 2.95077 9.12 3.2441 9.12C3.47143 9.12 3.69143 9.05033 3.9041 8.911ZM6.3351 10.077C5.90243 10.077 5.59077 10.0587 5.4001 10.022C5.1801 9.97067 4.96743 9.868 4.7621 9.714C4.3001 10.088 3.7941 10.275 3.2441 10.275C2.6501 10.275 2.11843 10.0623 1.6491 9.637C1.15777 9.197 0.9121 8.68367 0.9121 8.097V7.283H0.3071V6.227C0.329099 6.21967 0.530766 6.205 0.9121 6.183V2.916C0.9121 2.322 1.15777 1.805 1.6491 1.365C2.11843 0.939666 2.6501 0.726999 3.2441 0.726999C3.8381 0.726999 4.37343 0.943333 4.8501 1.376C5.3341 1.80867 5.5761 2.322 5.5761 2.916V8.097C5.5761 8.34633 5.52477 8.592 5.4221 8.834C5.52477 8.9 5.6201 8.944 5.7081 8.966H6.3351V10.077Z" fill="#D71E00"/>
</svg>
