<svg width="8" height="13" viewBox="0 0 8 13" fill="none" xmlns="http://www.w3.org/2000/svg">
<path d="M0 3.58915C0 3.04538 0.16264 2.49437 0.487992 1.93625C0.813235 1.37814 1.28801 0.915918 1.91199 0.54952C2.53601 0.183238 3.26401 0 4.09599 0C4.86925 0 5.55199 0.153226 6.14401 0.459366C6.73602 0.765662 7.19325 1.18212 7.51601 1.7087C7.83863 2.23544 8 2.80778 8 3.426C8 3.9126 7.90799 4.33914 7.72398 4.70539C7.53997 5.07178 7.32122 5.38804 7.06796 5.65417C6.81459 5.92037 6.35995 6.36833 5.70397 6.99799C5.52261 7.17549 5.37719 7.33153 5.26797 7.466C5.15859 7.60054 5.07722 7.7236 5.02395 7.83517C4.97058 7.94682 4.92918 8.05843 4.89994 8.17007C4.87056 8.28164 4.82658 8.47781 4.76796 8.75824C4.6666 9.35364 4.34922 9.65126 3.81597 9.65126C3.5386 9.65126 3.30522 9.55399 3.11597 9.3593C2.9266 9.16473 2.83198 8.87563 2.83198 8.49208C2.83198 8.01122 2.90123 7.59476 3.03998 7.24274C3.17863 6.89065 3.3626 6.58154 3.59198 6.31541C3.82121 6.04921 4.13062 5.73299 4.51998 5.36659C4.86124 5.04607 5.10798 4.80418 5.25999 4.64102C5.412 4.47787 5.53998 4.29624 5.644 4.09576C5.74798 3.89545 5.80001 3.67798 5.80001 3.44319C5.80001 2.98527 5.64127 2.59891 5.324 2.28401C5.00662 1.96928 4.59724 1.81175 4.09599 1.81175C3.50922 1.81175 3.07723 1.9706 2.79997 2.28831C2.52261 2.60602 2.28799 3.07398 2.09597 3.6922C1.91461 4.33914 1.57058 4.66248 1.06395 4.66248C0.765175 4.66248 0.513187 4.5495 0.307948 4.32332C0.102637 4.09721 0 3.8525 0 3.58915ZM3.90401 13C3.57862 13 3.29463 12.8869 3.052 12.6608C2.80926 12.4348 2.68798 12.1185 2.68798 11.712C2.68798 11.3514 2.80522 11.048 3.03998 10.8018C3.2746 10.5558 3.5626 10.4326 3.90397 10.4326C4.23999 10.4326 4.5226 10.5558 4.75198 10.8018C4.98121 11.048 5.09597 11.3514 5.09597 11.712C5.09597 12.1128 4.97597 12.4276 4.73596 12.6565C4.49595 12.8855 4.21866 13 3.90401 13Z" fill="white"/>
</svg>
