<svg width="7" height="11" viewBox="0 0 7 11" fill="none" xmlns="http://www.w3.org/2000/svg">
<path d="M0.549852 6.216H0.538852C0.524185 6.24533 0.516852 5.985 0.516852 5.435C0.516852 4.14433 0.692852 3.10667 1.04485 2.322C1.54352 1.244 2.36118 0.705 3.49785 0.705C4.05519 0.705 4.57219 0.855333 5.04885 1.156C5.50352 1.44933 5.87385 1.84533 6.15985 2.344L5.13685 2.96C4.74085 2.26333 4.19452 1.915 3.49785 1.915C2.58852 1.915 2.02385 2.59333 1.80385 3.95C2.30985 3.50267 2.87085 3.279 3.48685 3.279C4.39619 3.279 5.13685 3.65667 5.70885 4.412C6.22219 5.094 6.47885 5.908 6.47885 6.854C6.47885 7.734 6.20385 8.51133 5.65385 9.186C5.06719 9.89733 4.34485 10.253 3.48685 10.253C3.06152 10.253 2.61785 10.1137 2.15585 9.835C1.66452 9.54167 1.27218 9.00267 0.978852 8.218C0.751518 7.60933 0.608518 6.942 0.549852 6.216ZM3.48685 9.054C4.01485 9.054 4.45485 8.812 4.80685 8.328C5.13685 7.888 5.30185 7.39667 5.30185 6.854C5.30185 6.24533 5.15152 5.71733 4.85085 5.27C4.51352 4.74933 4.05885 4.489 3.48685 4.489C3.06885 4.489 2.69119 4.69067 2.35385 5.094C2.07519 5.43133 1.86985 5.82733 1.73785 6.282C1.80385 6.95667 1.95052 7.536 2.17785 8.02C2.50052 8.70933 2.93685 9.054 3.48685 9.054Z" fill="black"/>
</svg>
