<svg width="16" height="16" viewBox="0 0 16 16" fill="none" xmlns="http://www.w3.org/2000/svg">
<path d="M9.83794 11.6923C9.83794 11.6923 12.9281 14.7821 15.3769 11.0769C16.6515 9.14825 15.7874 7.26952 14.4286 5.97107L8.57875 0.210442C8.24947 -0.0701474 7.74359 -0.0701474 7.41368 0.210442L1.47895 5.97107C0.311437 7.19263 -0.6831 9.14337 0.606207 11.0769C3.06797 14.7692 6.14522 11.6923 6.14522 11.6923C6.14522 13.2695 5.69595 15.2966 5.56488 15.8529C5.54703 15.9304 5.60671 16 5.68612 16H10.2977C10.3771 16 10.4361 15.9305 10.4183 15.8535C10.2878 15.2954 9.83794 13.2597 9.83794 11.6923Z" fill="black"/>
</svg>
