<svg width="14" height="11" viewBox="0 0 14 11" fill="none" xmlns="http://www.w3.org/2000/svg">
<path d="M5.4727 10.077H0.368703V8.779H2.3157V2.157H0.368703V0.859H3.5697V8.779H5.4727V10.077ZM7.05 7.096V3.829C7.05 2.97833 7.34333 2.245 7.93 1.629C8.51667 1.013 9.23167 0.705 10.075 0.705C10.9183 0.705 11.6333 1.013 12.22 1.629C12.8067 2.245 13.1 2.97833 13.1 3.829V7.096C13.1 7.94667 12.8067 8.68733 12.22 9.318C11.6333 9.94133 10.9183 10.253 10.075 10.253C9.23167 10.253 8.51667 9.94133 7.93 9.318C7.34333 8.68733 7.05 7.94667 7.05 7.096ZM8.326 3.829V7.096C8.326 7.59467 8.49467 8.031 8.832 8.405C9.17667 8.77167 9.591 8.955 10.075 8.955C10.559 8.955 10.9697 8.768 11.307 8.394C11.6517 8.02 11.824 7.58733 11.824 7.096V3.829C11.824 3.33767 11.6517 2.91233 11.307 2.553C10.9697 2.19367 10.559 2.014 10.075 2.014C9.591 2.014 9.17667 2.19367 8.832 2.553C8.49467 2.91233 8.326 3.33767 8.326 3.829Z" fill="black"/>
</svg>
