<svg width="7" height="11" viewBox="0 0 7 11" fill="none" xmlns="http://www.w3.org/2000/svg">
<path d="M3.36585 10.209C2.66185 10.209 2.03118 9.967 1.47385 9.483C0.967852 9.043 0.593852 8.471 0.351852 7.767L1.47385 7.371C1.62785 7.833 1.85885 8.21067 2.16685 8.504C2.51885 8.84133 2.91852 9.01 3.36585 9.01C3.92319 9.01 4.40352 8.79 4.80685 8.35C5.21019 7.91 5.41185 7.41133 5.41185 6.854C5.41185 6.304 5.23952 5.85667 4.89485 5.512C4.55019 5.16733 4.09919 4.995 3.54185 4.995C3.28518 4.995 3.08352 5.028 2.93685 5.094C2.79019 5.16 2.61418 5.28833 2.40885 5.479L1.56185 4.643L4.30085 2.069H1.67185V3.246H0.483852V0.859H6.50085V1.618L4.15785 3.84C4.89852 3.97933 5.48885 4.32767 5.92885 4.885C6.37619 5.435 6.59985 6.09133 6.59985 6.854C6.59985 7.74133 6.28085 8.52233 5.64285 9.197C5.00485 9.87167 4.24585 10.209 3.36585 10.209Z" fill="#D71E00"/>
</svg>
