<svg width="6" height="11" viewBox="0 0 6 11" fill="none" xmlns="http://www.w3.org/2000/svg">
<path d="M4.76885 7.657H5.94585V10.033H0.0608516V9.428C0.0608516 8.32067 0.464185 7.327 1.27085 6.447C1.58619 6.10967 2.33785 5.50467 3.52585 4.632C4.33252 4.038 4.73585 3.52833 4.73585 3.103C4.73585 2.707 4.51219 2.399 4.06485 2.179C3.71285 2.003 3.31319 1.915 2.86585 1.915C1.77319 1.915 1.22685 2.28167 1.22685 3.015C1.22685 3.169 1.26718 3.34133 1.34785 3.532L0.247852 3.994C0.115852 3.64933 0.0498516 3.323 0.0498516 3.015C0.0498516 2.25233 0.335852 1.66567 0.907852 1.255C1.42119 0.888333 2.07385 0.705 2.86585 0.705C3.65785 0.705 4.34352 0.903 4.92285 1.299C5.59019 1.74633 5.92385 2.34767 5.92385 3.103C5.92385 3.807 5.57185 4.467 4.86785 5.083C4.17852 5.611 3.48919 6.139 2.79985 6.667C1.99319 7.34167 1.50552 8.06033 1.33685 8.823H4.76885V7.657Z" fill="black"/>
</svg>
